<svg xmlns="http://www.w3.org/2000/svg" width="2200" height="900" viewBox="0 0 2200 900">
  <defs>
    <linearGradient id="beam" x1="520" y1="450" x2="920" y2="450" gradientUnits="userSpaceOnUse">
      <stop offset="0%" stop-color="rgba(38,124,214,0.9)"/>
      <stop offset="45%" stop-color="rgba(63,195,255,0.75)"/>
      <stop offset="100%" stop-color="rgba(116,214,168,0.15)"/>
    </linearGradient>
    <filter id="softGlow">
      <feGaussianBlur stdDeviation="8"/>
    </filter>
  </defs>

  <g fill="none" stroke-linecap="round">
    <circle cx="500" cy="450" r="80" stroke="rgba(130,145,160,0.35)" stroke-width="2"/>
    <circle cx="500" cy="450" r="120" stroke="rgba(130,145,160,0.35)" stroke-width="2"/>
    <circle cx="500" cy="450" r="155" stroke="rgba(130,145,160,0.35)" stroke-width="2"/>
    <circle cx="500" cy="450" r="190" stroke="rgba(130,145,160,0.35)" stroke-width="2"/>

    <path d="M 500 265 A 185 185 0 0 1 674 513" stroke="rgba(31,48,66,1)" stroke-width="8"/>
    <path d="M 500 305 A 145 145 0 0 1 636 499" stroke="rgba(70,88,108,1)" stroke-width="6"/>
    <path d="M 500 345 A 105 105 0 0 1 599 486" stroke="rgba(130,145,160,0.8)" stroke-width="4"/>

    <ellipse cx="500" cy="450" rx="115" ry="115" fill="rgba(33,54,74,0.85)" clip-path="inset(0 0 0 50%)"/>
    <circle cx="500" cy="450" r="95" stroke="rgba(40,55,72,0.8)" stroke-width="2"/>
    <circle cx="500" cy="450" r="75" stroke="rgba(40,55,72,0.7)" stroke-width="2"/>
    <circle cx="500" cy="450" r="55" stroke="rgba(40,55,72,0.6)" stroke-width="2"/>

    <polygon points="515,350 920,420 920,480 515,550" fill="url(#beam)" filter="url(#softGlow)"/>
  </g>

  <g stroke="rgba(85,100,118,0.5)" stroke-width="2" fill="rgba(28,40,55,0.9)">
    <line x1="180" y1="420" x2="475" y2="450" />
    <line x1="220" y1="360" x2="475" y2="450" />
    <line x1="260" y1="470" x2="475" y2="450" />
    <line x1="300" y1="380" x2="475" y2="450" />
    <line x1="325" y1="520" x2="475" y2="450" />
    <line x1="350" y1="420" x2="475" y2="450" />
    <line x1="390" y1="345" x2="475" y2="450" />
    <line x1="415" y1="500" x2="475" y2="450" />
    <line x1="270" y1="560" x2="475" y2="450" />
    <line x1="150" y1="520" x2="475" y2="450" />
    <line x1="230" y1="300" x2="475" y2="450" />
    <line x1="120" y1="450" x2="475" y2="450" />
    <line x1="180" y1="420" x2="260" y2="470" stroke="rgba(120,130,140,0.35)" stroke-width="1"/>
    <line x1="180" y1="420" x2="300" y2="380" stroke="rgba(120,130,140,0.35)" stroke-width="1"/>
    <line x1="220" y1="360" x2="300" y2="380" stroke="rgba(120,130,140,0.35)" stroke-width="1"/>
    <line x1="260" y1="470" x2="325" y2="520" stroke="rgba(120,130,140,0.35)" stroke-width="1"/>
    <line x1="300" y1="380" x2="350" y2="420" stroke="rgba(120,130,140,0.35)" stroke-width="1"/>
    <line x1="350" y1="420" x2="415" y2="500" stroke="rgba(120,130,140,0.35)" stroke-width="1"/>
    <line x1="390" y1="345" x2="350" y2="420" stroke="rgba(120,130,140,0.35)" stroke-width="1"/>
    <line x1="270" y1="560" x2="325" y2="520" stroke="rgba(120,130,140,0.35)" stroke-width="1"/>
    <line x1="150" y1="520" x2="260" y2="470" stroke="rgba(120,130,140,0.35)" stroke-width="1"/>
    <line x1="230" y1="300" x2="220" y2="360" stroke="rgba(120,130,140,0.35)" stroke-width="1"/>
    <line x1="120" y1="450" x2="180" y2="420" stroke="rgba(120,130,140,0.35)" stroke-width="1"/>
    <line x1="260" y1="470" x2="350" y2="420" stroke="rgba(120,130,140,0.35)" stroke-width="1"/>
    <line x1="300" y1="380" x2="390" y2="345" stroke="rgba(120,130,140,0.35)" stroke-width="1"/>
    <circle cx="180" cy="420" r="4"/>
    <circle cx="220" cy="360" r="4"/>
    <circle cx="260" cy="470" r="4"/>
    <circle cx="300" cy="380" r="4"/>
    <circle cx="325" cy="520" r="4"/>
    <circle cx="350" cy="420" r="4"/>
    <circle cx="390" cy="345" r="4"/>
    <circle cx="415" cy="500" r="4"/>
    <circle cx="270" cy="560" r="4"/>
    <circle cx="150" cy="520" r="4"/>
    <circle cx="230" cy="300" r="4"/>
    <circle cx="120" cy="450" r="4"/>
  </g>

  <g font-family="DejaVu Sans, Arial, sans-serif" fill="rgb(31,48,66)">
    <text x="980" y="400" font-size="120" letter-spacing="8">LENS</text>
    <text x="980" y="503" font-size="64" letter-spacing="10" fill="rgb(70,88,108)">BENCHMARK</text>
    <line x1="980" y1="483" x2="1880" y2="483" stroke="rgba(130,145,160,0.35)" stroke-width="3"/>
    <line x1="980" y1="566" x2="1880" y2="566" stroke="rgba(130,145,160,0.18)" stroke-width="2"/>
    <text x="980" y="630" font-size="42" letter-spacing="3" fill="rgb(70,88,108)">LONGITUDINAL EVALUATION NARRATIVE SYNTHESIS</text>
  </g>
</svg>